<svg id="Capa_1" enable-background="new 0 0 512 512" height="512" viewBox="0 0 512 512" width="512" xmlns="http://www.w3.org/2000/svg"><g><g><path clip-rule="evenodd" d="m473.237 450.043h-434.474c-16.569 0-30-13.431-30-30v-170.927c0-16.569 13.431-30 30-30h434.475c16.569 0 30 13.431 30 30v170.927c-.001 16.569-13.432 30-30.001 30z" fill="#ff7d97" fill-rule="evenodd"/></g><g><path d="m301.58 399.406h-136.74c-5.594 0-10.129 4.535-10.129 10.129s4.535 10.129 10.129 10.129h136.74c5.594 0 10.129-4.535 10.129-10.129s-4.535-10.129-10.129-10.129z"/><circle cx="256" cy="96.552" r="10"/><circle cx="347.329" cy="409.535" r="10"/><path d="m471.484 208.987h-111.751c-.161-.51-.352-1.017-.6-1.51l-66.923-133.311c-6.917-13.779-20.792-22.338-36.21-22.338s-29.292 8.559-36.209 22.338l-66.924 133.311c-.248.494-.439 1-.6 1.51h-111.751c-22.341 0-40.516 18.176-40.516 40.516v170.154c0 22.34 18.175 40.516 40.516 40.516h430.969c22.34 0 40.516-18.176 40.516-40.516v-170.154c-.001-22.34-18.177-40.516-40.517-40.516zm-233.588-125.733c3.511-6.993 10.279-11.168 18.105-11.168s14.593 4.175 18.104 11.168l63.12 125.733h-162.449zm253.846 336.402c0 11.17-9.087 20.258-20.258 20.258h-430.968c-11.17 0-20.258-9.087-20.258-20.258v-170.153c0-11.17 9.088-20.258 20.258-20.258h430.969c11.17 0 20.258 9.087 20.258 20.258v170.153z"/><path d="m171.393 352.149c-.032-5.574-4.56-10.072-10.128-10.072-.019 0-.039 0-.058 0-4.061.023-8.333.041-11.998.048v-53.217c0-5.594-4.535-10.129-10.129-10.129s-10.129 4.535-10.129 10.129v63.298c0 4.93 3.55 9.145 8.409 9.982.733.127 16.688.188 23.961.147 5.594-.032 10.103-4.592 10.072-10.186z"/><path d="m382.878 299.048c5.594 0 10.129-4.535 10.129-10.129s-4.535-10.129-10.129-10.129h-26.45c-5.594 0-10.129 4.535-10.129 10.129v62.773c0 5.594 4.535 10.129 10.129 10.129h26.45c5.594 0 10.129-4.535 10.129-10.129s-4.535-10.129-10.129-10.129h-16.321v-11.129h14.371c5.594 0 10.129-4.535 10.129-10.129s-4.535-10.129-10.129-10.129h-14.371v-11.129h16.321z"/><path d="m437.105 278.974h-17.412c-5.56 0-10.129 4.658-10.129 10.192 0 0 .062 61.605.163 62.178.396 5.224 4.901 9.365 10.129 9.365.526-.002 12.958-.049 17.935-.138 19.856-.346 34.268-17.475 34.268-40.73.001-24.444-14.046-40.867-34.954-40.867zm.333 61.344c-1.783.031-4.631.057-7.524.078-.022-7.019-.047-15.912-.047-20.623 0-3.96-.014-13.221-.027-20.542h7.265c13.637 0 14.697 15.775 14.697 20.61 0 10.068-4.441 20.304-14.364 20.477z"/><path d="m108.21 335.549c-2.336-1.96-5.503-2.769-8.493-2.173-3.353.668-4.934 2.895-7.325 5.021-2.775 2.472-6.357 3.725-10.647 3.725-11.881 0-21.547-9.666-21.547-21.547 0-11.882 9.666-21.548 21.547-21.548 4.319 0 8.482 1.27 12.04 3.674 4.635 3.131 10.932 1.912 14.063-2.722 3.132-4.636 1.913-10.932-2.723-14.064-6.919-4.675-15.004-7.146-23.381-7.146-23.051 0-41.805 18.754-41.805 41.805s18.754 41.804 41.805 41.804c9.276 0 17.617-3.062 24.118-8.853 2.793-2.485 5.55-5.354 5.921-9.251.314-3.291-1.039-6.599-3.573-8.725z"/><path d="m294.862 299.741c6.951-2.091 15.892 2.619 18.763 4.619 4.553 3.22 10.852 2.156 14.093-2.384 3.25-4.553 2.194-10.879-2.358-14.129-1.862-1.328-18.684-12.822-36.341-7.504-9.579 2.886-16.361 10.47-17.698 19.794-1.263 8.8 2.554 17.268 9.963 22.097.447.292.917.548 1.405.766.369.164 9.159 4.076 19.052 7.725 3.461 1.277 7.343 3.657 6.895 6.163-.388 2.17-3.482 5.382-8.891 5.382-5.683 0-11.13-2.267-14.572-6.064-3.756-4.145-10.163-4.458-14.307-.702-4.145 3.757-4.459 10.163-.702 14.307 7.326 8.082 18.107 12.717 29.582 12.717 14.423 0 26.55-9.285 28.834-22.079 1.735-9.713-2.563-22.362-19.828-28.73-7.387-2.725-14.29-5.684-16.807-6.78-.601-.605-.652-1.358-.571-1.925.211-1.476 1.483-2.669 3.488-3.273z"/><path d="m217.234 362.924c23.051 0 41.804-18.753 41.804-41.804s-18.753-41.804-41.804-41.804-41.805 18.753-41.805 41.804c0 23.05 18.754 41.804 41.805 41.804zm0-63.351c11.881 0 21.547 9.666 21.547 21.547s-9.666 21.547-21.547 21.547-21.547-9.666-21.547-21.547 9.666-21.547 21.547-21.547z"/></g></g></svg>